<?xml version="1.0" ?><svg data-name="Layer 1" id="Layer_1" viewBox="0 0 100 100" xmlns="http://www.w3.org/2000/svg"><title/><path d="M60.49,43.77V40.63a1,1,0,0,1,1-1h3.13a1,1,0,0,1,1,1v3.14a1,1,0,0,1-1,1H61.49A1,1,0,0,1,60.49,43.77Zm4.35,5.15v3.14a1,1,0,0,0,1,1H69a1,1,0,0,0,1-1V48.92a1,1,0,0,0-1-1H65.84A1,1,0,0,0,64.84,48.92Zm-8.71,0v3.14a1,1,0,0,0,1,1h3.14a1,1,0,0,0,1-1V48.92a1,1,0,0,0-1-1H57.13A1,1,0,0,0,56.13,48.92Zm14.06-4.15h3.14a1,1,0,0,0,1-1V40.63a1,1,0,0,0-1-1H70.19a1,1,0,0,0-1,1v3.14A1,1,0,0,0,70.19,44.77ZM70,56.16H66.91a1,1,0,0,0-1,1v3.13a1,1,0,0,0,1,1H70a1,1,0,0,0,1-1V57.16A1,1,0,0,0,70,56.16ZM52.78,44.77h3.14a1,1,0,0,0,1-1V40.63a1,1,0,0,0-1-1H52.78a1,1,0,0,0-1,1v3.14A1,1,0,0,0,52.78,44.77Zm9,11.39H38.34a1,1,0,0,0-1,1v3.13a1,1,0,0,0,1,1H61.79a1,1,0,0,0,1-1V57.16A1,1,0,0,0,61.79,56.16Zm-28.7,0H30a1,1,0,0,0-1,1v3.13a1,1,0,0,0,1,1h3.13a1,1,0,0,0,1-1V57.16A1,1,0,0,0,33.09,56.16ZM30,48.92v3.14a1,1,0,0,0,1,1h3.14a1,1,0,0,0,1-1V48.92a1,1,0,0,0-1-1H31A1,1,0,0,0,30,48.92Zm-3.35-4.15h3.14a1,1,0,0,0,1-1V40.63a1,1,0,0,0-1-1H26.67a1,1,0,0,0-1,1v3.14A1,1,0,0,0,26.67,44.77Zm20.76,4.15v3.14a1,1,0,0,0,1,1h3.14a1,1,0,0,0,1-1V48.92a1,1,0,0,0-1-1H48.43A1,1,0,0,0,47.43,48.92ZM82,34.05V66a2,2,0,0,1-2,2H20a2,2,0,0,1-2-2V34.05a2,2,0,0,1,2-2H80A2,2,0,0,1,82,34.05Zm-4,2H22V64H78ZM35.38,44.77h3.13a1,1,0,0,0,1-1V40.63a1,1,0,0,0-1-1H35.38a1,1,0,0,0-1,1v3.14A1,1,0,0,0,35.38,44.77Zm8.7,0h3.14a1,1,0,0,0,1-1V40.63a1,1,0,0,0-1-1H44.08a1,1,0,0,0-1,1v3.14A1,1,0,0,0,44.08,44.77Zm-5.35,4.15v3.14a1,1,0,0,0,1,1h3.14a1,1,0,0,0,1-1V48.92a1,1,0,0,0-1-1H39.73A1,1,0,0,0,38.73,48.92Z"/></svg>