<?xml version="1.0" ?><svg viewBox="0 0 32 32" xmlns="http://www.w3.org/2000/svg"><title/><g data-name="13-Setting" id="_13-Setting"><path d="M30.16,13l-2.07-.34a1,1,0,0,1-.76-.63,11.51,11.51,0,0,0-.52-1.26,1,1,0,0,1,.1-1l1.21-1.71A1,1,0,0,0,28,6.8L25.2,4a1,1,0,0,0-1.29-.1L22.2,5.09a1,1,0,0,1-1,.1A11.51,11.51,0,0,0,20,4.67a1,1,0,0,1-.63-.76L19,1.84A1,1,0,0,0,18,1H14a1,1,0,0,0-1,.84l-.34,2.07a1,1,0,0,1-.63.76,11.51,11.51,0,0,0-1.26.52,1,1,0,0,1-1-.1L8.09,3.88A1,1,0,0,0,6.8,4L4,6.8a1,1,0,0,0-.1,1.29L5.09,9.8a1,1,0,0,1,.1,1A11.51,11.51,0,0,0,4.67,12a1,1,0,0,1-.76.63L1.84,13A1,1,0,0,0,1,14v4a1,1,0,0,0,.84,1l2.07.34a1,1,0,0,1,.76.63,11.51,11.51,0,0,0,.52,1.26,1,1,0,0,1-.1,1L3.88,23.91A1,1,0,0,0,4,25.2L6.8,28a1,1,0,0,0,1.29.1L9.8,26.91a1,1,0,0,1,1-.1,11.51,11.51,0,0,0,1.26.52,1,1,0,0,1,.63.76L13,30.16A1,1,0,0,0,14,31h4a1,1,0,0,0,1-.84l.34-2.07a1,1,0,0,1,.63-.76,11.51,11.51,0,0,0,1.26-.52,1,1,0,0,1,1,.1l1.71,1.21A1,1,0,0,0,25.2,28L28,25.2a1,1,0,0,0,.1-1.29L26.91,22.2a1,1,0,0,1-.1-1A11.51,11.51,0,0,0,27.33,20a1,1,0,0,1,.76-.63L30.16,19A1,1,0,0,0,31,18V14A1,1,0,0,0,30.16,13ZM29,17.15l-1.24.21a3,3,0,0,0-2.32,1.95h0a10.36,10.36,0,0,1-.43,1,2.94,2.94,0,0,0,.27,3l.72,1L24.38,26l-1-.72a2.94,2.94,0,0,0-3-.27,10.36,10.36,0,0,1-1,.43,3,3,0,0,0-1.95,2.32L17.15,29h-2.3l-.21-1.24a3,3,0,0,0-2-2.32,10.36,10.36,0,0,1-1-.43,2.94,2.94,0,0,0-3,.27l-1,.72L6,24.38l.72-1a2.94,2.94,0,0,0,.27-3,10.36,10.36,0,0,1-.43-1,3,3,0,0,0-2.33-1.95L3,17.15v-2.3l1.23-.21a3,3,0,0,0,2.33-2,10.36,10.36,0,0,1,.43-1,3,3,0,0,0-.27-3L6,7.62,7.62,6l1,.72a3,3,0,0,0,3,.27,10.36,10.36,0,0,1,1-.43,3,3,0,0,0,2-2.32L14.85,3h2.3l.21,1.23a3,3,0,0,0,1.95,2.33,10.36,10.36,0,0,1,1,.43,3,3,0,0,0,3-.27l1-.72L26,7.62l-.72,1a3,3,0,0,0-.27,3,10.36,10.36,0,0,1,.43,1,3,3,0,0,0,2.32,2l1.24.21Z"/><path d="M16,9a7,7,0,1,0,7,7A7,7,0,0,0,16,9Zm0,12a5,5,0,1,1,5-5A5,5,0,0,1,16,21Z"/></g></svg>